HIERARCHY
ROOT Hips
{
	OFFSET 0.000000 0.000000 0.000000
	CHANNELS 6 Xposition Yposition Zposition Yrotation Xrotation Zrotation
	JOINT Chest
	{
		OFFSET 0.000000 10.149404 -1.127712
		CHANNELS 6 Xposition Yposition Zposition Yrotation Xrotation Zrotation
		JOINT Chest2
		{
			OFFSET 0.000000 11.268527 0.000000
			CHANNELS 6 Xposition Yposition Zposition Yrotation Xrotation Zrotation
			JOINT Chest3
			{
				OFFSET 0.000000 10.288218 -0.001079
				CHANNELS 6 Xposition Yposition Zposition Yrotation Xrotation Zrotation
				JOINT Chest4
				{
					OFFSET 0.000000 10.276731 -0.001080
					CHANNELS 6 Xposition Yposition Zposition Yrotation Xrotation Zrotation
					JOINT Neck
					{
						OFFSET 0.000000 14.388412 0.000000
						CHANNELS 6 Xposition Yposition Zposition Yrotation Xrotation Zrotation
						JOINT Head
						{
							OFFSET 0.000000 9.567978 0.002321
							CHANNELS 6 Xposition Yposition Zposition Yrotation Xrotation Zrotation
							End Site
							{
								OFFSET 0.000000 17.765411 0.000312
							}
						}
					}
					JOINT RightCollar
					{
						OFFSET -3.132497 8.066086 0.000000
						CHANNELS 6 Xposition Yposition Zposition Yrotation Xrotation Zrotation
						JOINT RightShoulder
						{
							OFFSET -14.645328 0.000000 0.000000
							CHANNELS 6 Xposition Yposition Zposition Yrotation Xrotation Zrotation
							JOINT RightElbow
							{
								OFFSET 0.000000 -31.323030 0.000000
								CHANNELS 6 Xposition Yposition Zposition Yrotation Xrotation Zrotation
								JOINT RightWrist
								{
									OFFSET 0.000000 -25.610935 0.000000
									CHANNELS 6 Xposition Yposition Zposition Yrotation Xrotation Zrotation
									End Site
									{
										OFFSET 0.000000 -19.138220 0.000000
									}
								}
							}
						}
					}
					JOINT LeftCollar
					{
						OFFSET 3.132497 8.066086 0.000000
						CHANNELS 6 Xposition Yposition Zposition Yrotation Xrotation Zrotation
						JOINT LeftShoulder
						{
							OFFSET 14.645328 0.000000 0.000000
							CHANNELS 6 Xposition Yposition Zposition Yrotation Xrotation Zrotation
							JOINT LeftElbow
							{
								OFFSET 0.000000 -31.323030 0.000000
								CHANNELS 6 Xposition Yposition Zposition Yrotation Xrotation Zrotation
								JOINT LeftWrist
								{
									OFFSET 0.000000 -25.610935 0.000000
									CHANNELS 6 Xposition Yposition Zposition Yrotation Xrotation Zrotation
									End Site
									{
										OFFSET 0.000000 -19.138220 0.000000
									}
								}
							}
						}
					}
				}
			}
		}
	}
	JOINT RightHip
	{
		OFFSET -8.349073 0.003782 -0.000420
		CHANNELS 6 Xposition Yposition Zposition Yrotation Xrotation Zrotation
		JOINT RightKnee
		{
			OFFSET 0.000000 -43.250797 -0.000255
			CHANNELS 6 Xposition Yposition Zposition Yrotation Xrotation Zrotation
			JOINT RightAnkle
			{
				OFFSET 0.000000 -42.243721 -0.000429
				CHANNELS 6 Xposition Yposition Zposition Yrotation Xrotation Zrotation
				JOINT RightToe
				{
					OFFSET 0.000000 -7.531273 17.111912
					CHANNELS 6 Xposition Yposition Zposition Yrotation Xrotation Zrotation
					End Site
					{
						OFFSET 0.000000 -1.639313 7.141665
					}
				}
			}
		}
	}
	JOINT LeftHip
	{
		OFFSET 8.349073 0.001501 -0.000167
		CHANNELS 6 Xposition Yposition Zposition Yrotation Xrotation Zrotation
		JOINT LeftKnee
		{
			OFFSET 0.000000 -43.250797 -0.000255
			CHANNELS 6 Xposition Yposition Zposition Yrotation Xrotation Zrotation
			JOINT LeftAnkle
			{
				OFFSET 0.000000 -42.243713 -0.000429
				CHANNELS 6 Xposition Yposition Zposition Yrotation Xrotation Zrotation
				JOINT LeftToe
				{
					OFFSET 0.000000 -7.531273 17.111912
					CHANNELS 6 Xposition Yposition Zposition Yrotation Xrotation Zrotation
					End Site
					{
						OFFSET 0.000000 -1.639313 7.141665
					}
				}
			}
		}
	}
}
MOTION
Frames: 4
Frame Time: 0.008333
1.707934 27.560053 39.600101 3.844744 78.114053 -175.246808 0.000000 10.149405 -1.127711 0.085464 -4.788377 0.145505 -0.000000 11.268524 0.000000 0.217807 -3.776715 0.203349 0.000000 10.288226 -0.001078 0.116670 1.024008 0.076825 0.000000 10.276731 -0.001080 -0.000000 0.000001 0.000000 0.000000 14.388420 0.000001 -2.856976 -12.695066 0.929524 0.000000 9.567984 0.002319 -5.980156 -1.706935 -5.096390 -3.132496 8.066088 0.000003 -4.129587 0.000080 -14.131293 -14.645327 0.000004 -0.000004 -5.977159 -7.747462 6.430544 -0.000000 -31.323023 0.000001 -8.819009 10.940198 -0.000002 -0.000001 -25.610931 -0.000001 8.628146 -0.000042 6.515564 3.132498 8.066085 -0.000001 -0.829336 -0.000001 13.681216 14.645328 -0.000002 0.000000 6.298047 -17.583501 -8.215297 0.000001 -31.323029 0.000000 1.918918 21.454405 0.000001 0.000001 -25.610937 0.000000 -7.753548 0.000072 -16.598077 -8.349072 0.003787 -0.000413 2.931581 -16.731257 -5.123127 0.000000 -43.250809 -0.000253 0.000003 -1.560354 -0.000001 -0.000002 -42.243717 -0.000422 7.202981 6.575856 6.515507 0.000002 -7.531244 17.111914 0.000005 -2.165476 -0.000000 8.349073 0.001502 -0.000162 -5.290739 -14.953412 4.408469 -0.000000 -43.250816 -0.000254 -0.000001 -4.750762 0.000001 0.000004 -42.243706 -0.000437 -9.235120 2.325028 -3.917109 -0.000001 -7.531269 17.111910 -0.000007 7.113578 -0.000000 
1.707251 27.562443 39.600212 3.894877 78.104477 -175.196538 -0.000001 10.149400 -1.127709 0.085667 -4.797273 0.147418 -0.000001 11.268520 -0.000001 0.218759 -3.784119 0.198284 -0.000000 10.288223 -0.001082 0.117262 1.025509 0.070024 -0.000000 10.276731 -0.001080 -0.000000 0.000000 -0.000000 0.000000 14.388413 -0.000006 -2.864248 -12.719598 0.920288 0.000000 9.567977 0.002320 -5.995308 -1.687866 -5.086915 -3.132496 8.066086 0.000000 -4.131435 0.000081 -14.130467 -14.645325 0.000001 -0.000002 -5.978344 -7.738546 6.428090 0.000001 -31.323032 0.000005 -8.812197 10.923205 -0.000001 -0.000000 -25.610939 0.000001 8.621558 -0.000022 6.518542 3.132496 8.066092 -0.000001 -0.822553 0.000083 13.687847 14.645329 -0.000001 -0.000002 6.328619 -17.600052 -8.208092 -0.000003 -31.323027 -0.000004 1.893499 21.497201 0.000001 -0.000001 -25.610937 0.000001 -7.683410 0.000020 -16.625391 -8.349072 0.003789 -0.000419 2.934108 -16.744771 -5.120982 0.000000 -43.250832 -0.000253 0.000007 -1.547255 -0.000000 -0.000001 -42.243721 -0.000431 7.214410 6.567893 6.515805 0.000000 -7.531296 17.111908 0.000003 -2.169672 -0.000000 8.349073 0.001509 -0.000168 -5.288694 -14.953244 4.411783 -0.000001 -43.250801 -0.000257 0.000005 -4.758363 -0.000000 0.000001 -42.243732 -0.000431 -9.226818 2.328889 -3.927530 0.000001 -7.531298 17.111908 0.000006 7.099981 0.000001 
1.710437 27.558458 39.601917 4.008235 78.127522 -175.077173 0.000000 10.149408 -1.127714 0.086454 -4.780078 0.151728 0.000000 11.268529 -0.000001 0.221586 -3.782225 0.197696 0.000000 10.288223 -0.001080 0.118844 1.010208 0.065323 0.000000 10.276731 -0.001081 -0.000000 0.000000 0.000000 -0.000000 14.388414 -0.000003 -2.859419 -12.673741 0.964500 -0.000000 9.567981 0.002317 -5.987752 -1.741996 -5.190693 -3.132497 8.066089 -0.000006 -4.081860 0.000010 -14.168324 -14.645328 -0.000000 -0.000000 -6.033448 -7.736236 6.455702 0.000001 -31.323030 0.000002 -8.795410 10.954801 -0.000001 -0.000001 -25.610939 0.000002 8.540307 0.000023 6.452068 3.132497 8.066093 -0.000003 -0.819756 -0.000003 13.679147 14.645328 0.000002 -0.000003 6.335711 -17.569029 -8.198157 0.000003 -31.323027 -0.000001 1.924592 21.457304 -0.000002 0.000003 -25.610935 0.000001 -7.715381 0.000003 -16.602371 -8.349073 0.003794 -0.000419 2.913235 -16.736100 -5.120857 -0.000003 -43.250790 -0.000254 0.000001 -1.535751 0.000001 -0.000000 -42.243717 -0.000426 7.245008 6.553928 6.481899 -0.000001 -7.531283 17.111912 -0.000008 -2.129375 -0.000000 8.349073 0.001509 -0.000167 -5.210372 -14.949933 4.381796 0.000001 -43.250797 -0.000256 0.000005 -4.718662 -0.000002 0.000000 -42.243725 -0.000437 -9.271271 2.310025 -3.928578 -0.000001 -7.531274 17.111906 0.000015 7.119390 0.000001 
1.710209 27.564035 39.605225 4.162962 78.084895 -174.913713 -0.000000 10.149404 -1.127715 0.087604 -4.799769 0.138587 -0.000000 11.268528 0.000002 0.219727 -3.810898 0.192661 -0.000001 10.288221 -0.001079 0.117281 1.001204 0.073323 -0.000000 10.276731 -0.001080 0.000000 0.000001 0.000000 -0.000000 14.388412 0.000001 -2.858797 -12.697682 0.979867 0.000001 9.567974 0.002319 -5.988956 -1.712475 -5.230475 -3.132496 8.066084 0.000000 -4.091039 0.000021 -14.155991 -14.645324 0.000003 -0.000004 -5.941122 -7.732730 6.431325 0.000000 -31.323029 -0.000004 -8.897618 10.857402 -0.000002 0.000004 -25.610935 0.000003 8.597823 -0.000031 6.449023 3.132496 8.066085 -0.000000 -0.767598 0.000036 13.653914 14.645329 0.000003 0.000004 6.321764 -17.546225 -8.154808 -0.000000 -31.323029 -0.000001 1.965693 21.398399 -0.000006 -0.000001 -25.610939 -0.000001 -7.684654 0.000017 -16.565304 -8.349073 0.003784 -0.000422 2.961197 -16.770288 -5.140579 -0.000003 -43.250820 -0.000254 0.000012 -1.541853 -0.000000 0.000000 -42.243725 -0.000424 7.216826 6.550905 6.553432 0.000000 -7.531285 17.111917 0.000006 -2.149872 -0.000001 8.349074 0.001506 -0.000167 -5.285468 -14.999171 4.404341 0.000001 -43.250813 -0.000258 0.000000 -4.664461 -0.000002 0.000002 -42.243698 -0.000432 -9.172854 2.266339 -3.852697 -0.000001 -7.531285 17.111910 -0.000009 7.205188 -0.000002 
